PathFileType	4	(X/Y/Z)	/Users/visionmauri/1_8_1_f_Sports2D/1_8_1_f_Sports2D_px_person00.trc
DataRate	CameraRate	NumFrames	NumMarkers	Units	OrigDataRate	OrigDataStartFrame	OrigNumFrames
30.0	30.0	6	22	m	30.0	313	358
Frame#	Time	Hip			RHip			RKnee			RAnkle			RBigToe			RSmallToe			RHeel			LHip			LKnee			LAnkle			LBigToe			LSmallToe			LHeel			Neck			Head			Nose			RShoulder			RElbow			RWrist			LShoulder			LElbow			LWrist			
		X1	Y1	Z1	X2	Y2	Z2	X3	Y3	Z3	X4	Y4	Z4	X5	Y5	Z5	X6	Y6	Z6	X7	Y7	Z7	X8	Y8	Z8	X9	Y9	Z9	X10	Y10	Z10	X11	Y11	Z11	X12	Y12	Z12	X13	Y13	Z13	X14	Y14	Z14	X15	Y15	Z15	X16	Y16	Z16	X17	Y17	Z17	X18	Y18	Z18	X19	Y19	Z19	X20	Y20	Z20	X21	Y21	Z21	X22	Y22	Z22
313	10.462558356676004	474.0288681986477	898.4739662089592	0.0	405.956159342452	922.2720519062681	0.0	418.5454664159697	1156.0019509894435	0.0	442.1149782940469	1367.227089452884	0.0	439.95569482113854	1469.9902018801515	0.0	401.388475019432	1453.520528452437	0.0	459.8353565422443	1390.8172666880291	0.0	542.1621197614492	917.1380000221257	0.0	532.933544607893	1148.7896024418735	0.0	536.3171498750095	1455.077923551377	0.0	514.7520332434555	1546.279776379449	0.0	557.8346051159955	1548.0804779415544	0.0	525.9520479339509	1495.2592152511756	0.0	496.35884470914567	508.6320658757909	0.0	506.0857367675269	332.5123448171291	0.0	518.996135697343	445.89706448406787	0.0	361.40394471878227	552.8081422196075	0.0	308.6458511208044	720.0977010898545	0.0	264.6987736197919	847.237942217827	0.0	620.7437468550124	562.1803606525733	0.0	653.0877255826649	731.1458061241299	0.0	666.5128241241143	792.1744153908927	0.0
314	10.495985060690943	477.7156475819788	898.6312939189785	0.0	408.35579399395414	924.1340932568152	0.0	419.5048611569162	1159.006583856482	0.0	441.3319328225929	1364.949711343958	0.0	441.70157979668875	1471.0151391144232	0.0	402.2149887395691	1453.8275940071549	0.0	457.2848038889557	1384.8698989799195	0.0	545.9112417300529	917.8474087343156	0.0	537.6174792037809	1148.014456493777	0.0	537.2195785481183	1459.7230838338287	0.0	516.996098337499	1553.7532089330366	0.0	559.3458283666245	1554.4658055018178	0.0	526.1160411858059	1494.3095561220791	0.0	501.6452632912982	505.99893456634896	0.0	511.5901826993148	326.62601921100753	0.0	529.0738017619282	438.7284349829851	0.0	364.38725505725915	550.0191405374037	0.0	309.6299236324715	718.8729234780179	0.0	263.8534206464786	848.9236166667512	0.0	627.4236676758763	561.250771000999	0.0	655.7689774756894	736.6534076934454	0.0	669.9574728689039	810.0553713005289	0.0
315	10.529411764705882	479.9143439419243	897.794325217267	0.0	409.92375291586484	924.6480578937189	0.0	419.0251009811257	1163.0998332417948	0.0	439.49801233169364	1361.097354299357	0.0	443.06624666932004	1472.1538197951256	0.0	402.9893174668238	1454.3465544205192	0.0	454.0476458253369	1378.7695869452723	0.0	549.7337234641	918.1397945360271	0.0	543.006901459864	1146.4142439821894	0.0	537.9836277434147	1465.5848086282801	0.0	520.5697181303594	1560.9220642912592	0.0	561.1101981370786	1560.1435489201187	0.0	525.5138844672944	1496.8365528003544	0.0	506.9972440532805	502.649600978071	0.0	516.9761589370696	319.69145052744557	0.0	534.008712170291	432.1369902752911	0.0	367.9317486802355	547.1427873235572	0.0	309.7772921730431	717.3789657013612	0.0	263.39102381234636	853.5494818204509	0.0	633.4015874820163	559.1417003131962	0.0	658.316713932306	740.6817504862373	0.0	671.7458034150678	809.6597095305038	0.0
316	10.562838468720821	481.98618961842004	896.9325225743779	0.0	411.29547607855176	924.3091021042909	0.0	415.3813297015075	1171.1231702560124	0.0	436.4508424324082	1356.7262901830336	0.0	443.25895438206254	1472.7351048812018	0.0	403.12167353750567	1454.698134657935	0.0	450.88273831842247	1372.6809909260187	0.0	553.7517221777124	918.3621068405091	0.0	546.7715095472946	1148.3636817745298	0.0	538.8833688378251	1473.215370363075	0.0	521.648529705036	1568.8251843932812	0.0	561.3762091733238	1567.0951153659025	0.0	526.629325140262	1505.1778264295895	0.0	511.576595438451	498.59632321108353	0.0	522.5163167130554	312.2725527663771	0.0	535.46479734146	427.8659139932317	0.0	371.33613310403	542.9122158853412	0.0	310.0748755976114	715.8031734764934	0.0	263.11073766395367	858.8330627861676	0.0	637.3588884658349	555.1444376531892	0.0	661.8006637765741	739.8319016323281	0.0	673.4948054857231	807.0126026018621	0.0
317	10.59626517273576	484.5824039391857	897.0797867041707	0.0	413.165290072108	923.355802147351	0.0	408.0060750049438	1182.8817643985744	0.0	432.69464336489364	1352.9463739151997	0.0	442.0313446728435	1473.0981214015792	0.0	401.6975003830299	1455.0066971407837	0.0	447.63865043586594	1366.3058408243962	0.0	557.6479338232655	918.1077020435961	0.0	548.273912464552	1152.7941089464969	0.0	539.6911592050652	1479.4801218889345	0.0	518.5997022471581	1576.600951248612	0.0	559.5290729687417	1574.6953789081895	0.0	529.0046296991662	1513.7861451917013	0.0	514.5344709518629	494.15704293591773	0.0	528.0307301737239	305.6040346636176	0.0	537.0744847335563	425.9125450343508	0.0	374.1216362159792	537.5541456735547	0.0	311.36571757938003	713.8498538640183	0.0	263.44539535061614	860.6492151060937	0.0	640.4704131574449	550.8219554680314	0.0	666.7163183599858	736.0693825144605	0.0	676.8030108103027	807.7415518231269	0.0
318	10.6296918767507	486.54213588154875	898.0928768900075	0.0	414.2029860722068	921.3417689253417	0.0	398.6707186128854	1193.837926737416	0.0	429.9734751783236	1349.4269651251254	0.0	439.5335679181637	1473.5043241509081	0.0	398.91368668213573	1454.9868465365269	0.0	445.46733858843015	1359.013928493	0.0	560.2462240825324	917.0822534811176	0.0	548.4004729841166	1154.8160199201845	0.0	539.9607481949716	1482.5787789265153	0.0	513.7584017632341	1583.3478241876428	0.0	557.1517654430062	1581.194668218736	0.0	529.3617937979558	1518.8422212569376	0.0	516.0728531335562	490.2269965065579	0.0	532.3548718023457	300.5192678317379	0.0	539.6124101424667	424.5928273044726	0.0	376.4171460998575	532.8893812151016	0.0	313.8086885174729	711.1932432844201	0.0	264.350824391525	858.3726722709727	0.0	643.1985369950454	547.451257181482	0.0	672.7987883362706	733.4657802737473	0.0	681.8935238228715	801.1630525712111	0.0
